<svg xmlns="http://www.w3.org/2000/svg" xmlns:xlink="http://www.w3.org/1999/xlink" width="500" zoomAndPan="magnify" viewBox="0 0 375 374.999991" height="500" preserveAspectRatio="xMidYMid meet" version="1.0"><defs><g/><clipPath id="c8b2eb5a91"><path d="M 26.382812 214.316406 L 168.882812 214.316406 L 168.882812 263 L 26.382812 263 Z M 26.382812 214.316406 " clip-rule="nonzero"/></clipPath><clipPath id="7fc6b7ab18"><path d="M 44.679688 201.972656 L 146.34375 201.972656 L 146.34375 253.003906 L 44.679688 253.003906 Z M 44.679688 201.972656 " clip-rule="nonzero"/></clipPath><clipPath id="b69e02bb4e"><path d="M 95.457031 201.972656 C 67.414062 201.972656 44.679688 213.394531 44.679688 227.488281 C 44.679688 241.582031 67.414062 253.003906 95.457031 253.003906 C 123.496094 253.003906 146.230469 241.582031 146.230469 227.488281 C 146.230469 213.394531 123.496094 201.972656 95.457031 201.972656 Z M 95.457031 201.972656 " clip-rule="nonzero"/></clipPath><clipPath id="4fcc21f74f"><path d="M 65 163.175781 L 150 163.175781 L 150 245 L 65 245 Z M 65 163.175781 " clip-rule="nonzero"/></clipPath><clipPath id="f5dae3b96b"><path d="M 131 140 L 156 140 L 156 164 L 131 164 Z M 131 140 " clip-rule="nonzero"/></clipPath><clipPath id="dd48a3372e"><path d="M 167.339844 146.691406 L 156.757812 177.949219 L 124.789062 167.128906 L 135.371094 135.871094 Z M 167.339844 146.691406 " clip-rule="nonzero"/></clipPath><clipPath id="3b4c0d1c91"><path d="M 167.339844 146.691406 L 156.757812 177.949219 L 124.789062 167.128906 L 135.371094 135.871094 Z M 167.339844 146.691406 " clip-rule="nonzero"/></clipPath><clipPath id="4f25645fcb"><path d="M 144 160 L 160 160 L 160 176 L 144 176 Z M 144 160 " clip-rule="nonzero"/></clipPath><clipPath id="69273e7c19"><path d="M 167.339844 146.691406 L 156.757812 177.949219 L 124.789062 167.128906 L 135.371094 135.871094 Z M 167.339844 146.691406 " clip-rule="nonzero"/></clipPath><clipPath id="46a675b120"><path d="M 167.339844 146.691406 L 156.757812 177.949219 L 124.789062 167.128906 L 135.371094 135.871094 Z M 167.339844 146.691406 " clip-rule="nonzero"/></clipPath></defs><g clip-path="url(#c8b2eb5a91)"><path fill="#2b0504" d="M 97.453125 260.269531 C 114.695312 260.269531 129.410156 257.597656 139.171875 252.832031 C 126.898438 255.453125 112.0625 256.863281 97.453125 256.863281 C 82.277344 256.863281 66.886719 255.339844 54.347656 252.523438 C 64.226562 257.425781 79.742188 260.269531 97.453125 260.269531 Z M 132.03125 251.664062 C 152.898438 248.167969 165.539062 241.730469 165.539062 235.585938 C 165.539062 226.550781 138.175781 216.867188 97.453125 216.867188 C 56.730469 216.867188 29.367188 226.550781 29.367188 235.585938 C 29.367188 242.117188 43.644531 248.984375 66.917969 252.285156 C 65.472656 251.824219 63.984375 251.28125 62.496094 250.5 C 61.316406 249.851562 60.117188 249.042969 59.121094 247.960938 C 58.152344 246.890625 57.25 245.601562 56.988281 243.949219 C 56.859375 243.128906 56.976562 242.199219 57.402344 241.425781 C 57.820312 240.667969 58.324219 240.097656 58.894531 239.539062 C 60.023438 238.429688 61.386719 237.605469 62.796875 236.9375 C 64.222656 236.265625 65.703125 235.808594 67.121094 235.402344 C 68.550781 234.984375 69.980469 234.636719 71.382812 234.335938 C 74.203125 233.722656 76.953125 233.324219 79.574219 233.035156 C 84.824219 232.464844 89.570312 232.414062 93.542969 232.492188 C 97.523438 232.566406 100.726562 232.773438 102.945312 232.933594 C 105.15625 233.101562 106.375 233.246094 106.375 233.351562 C 106.367188 233.445312 105.136719 233.484375 102.917969 233.496094 C 100.703125 233.503906 97.496094 233.453125 93.542969 233.503906 C 89.589844 233.5625 84.894531 233.714844 79.726562 234.355469 C 77.136719 234.667969 74.441406 235.09375 71.683594 235.707031 C 70.308594 236.015625 68.917969 236.363281 67.515625 236.769531 C 66.109375 237.179688 64.734375 237.625 63.414062 238.246094 C 62.09375 238.855469 60.867188 239.617188 59.882812 240.566406 C 59.402344 241.027344 58.933594 241.578125 58.652344 242.089844 C 58.382812 242.589844 58.292969 243.160156 58.371094 243.75 C 58.542969 244.941406 59.285156 246.089844 60.132812 247.03125 C 60.984375 247.988281 62.042969 248.722656 63.136719 249.339844 C 65.347656 250.550781 67.734375 251.246094 69.949219 251.964844 C 71.511719 252.453125 73.019531 252.863281 74.460938 253.195312 C 81.496094 253.914062 89.199219 254.3125 97.453125 254.3125 C 104.917969 254.3125 111.921875 253.988281 118.394531 253.402344 C 119.996094 253.195312 121.664062 252.941406 123.375 252.605469 C 128.261719 251.636719 133.582031 249.988281 138.496094 247.070312 C 139.703125 246.351562 140.765625 245.492188 141.316406 244.40625 C 141.90625 243.308594 141.925781 242.082031 141.273438 241.136719 C 140.636719 240.15625 139.546875 239.527344 138.371094 239.09375 C 137.191406 238.667969 135.921875 238.320312 134.722656 237.964844 C 129.894531 236.59375 125.449219 235.675781 121.699219 235.042969 C 117.945312 234.421875 114.882812 234.074219 112.761719 233.851562 C 110.636719 233.625 109.460938 233.503906 109.460938 233.402344 C 109.46875 233.304688 110.652344 233.238281 112.800781 233.292969 C 114.941406 233.34375 118.035156 233.546875 121.855469 234.042969 C 125.65625 234.542969 130.167969 235.367188 135.078125 236.695312 C 136.3125 237.035156 137.535156 237.347656 138.847656 237.808594 C 140.144531 238.269531 141.546875 239.007812 142.445312 240.363281 C 142.890625 241.019531 143.1875 241.859375 143.179688 242.699219 C 143.1875 243.539062 142.957031 244.34375 142.585938 245.058594 C 141.835938 246.523438 140.523438 247.519531 139.246094 248.292969 C 136.890625 249.699219 134.453125 250.789062 132.03125 251.664062 Z M 40.09375 248.089844 C 34.550781 245.75 26.816406 242.769531 26.816406 235.585938 C 26.816406 222.269531 62.734375 214.3125 97.453125 214.3125 C 132.171875 214.3125 168.089844 222.269531 168.089844 235.585938 C 168.089844 240.207031 163.878906 243.46875 160.261719 245.570312 C 157.515625 247.160156 154.558594 248.390625 151.570312 249.425781 C 150.140625 249.929688 148.460938 250.113281 147.105469 250.683594 C 145.699219 251.265625 144.644531 252.703125 143.34375 253.484375 C 141.808594 254.386719 140.226562 255.1875 138.601562 255.902344 C 134.941406 257.519531 131.101562 258.710938 127.222656 259.65625 C 117.511719 262.011719 107.429688 262.820312 97.453125 262.820312 C 84.425781 262.820312 70.882812 261.570312 58.5625 257.066406 C 52.089844 254.703125 46.433594 250.761719 40.09375 248.089844 " fill-opacity="1" fill-rule="nonzero"/></g><g clip-path="url(#7fc6b7ab18)"><g clip-path="url(#b69e02bb4e)"><path fill="#ffffff" d="M 44.679688 201.972656 L 146.144531 201.972656 L 146.144531 253.003906 L 44.679688 253.003906 Z M 44.679688 201.972656 " fill-opacity="1" fill-rule="nonzero"/></g></g><path fill="#0b5d1e" d="M 58.46875 203.113281 C 59.371094 203.371094 60.015625 203.886719 60.660156 204.402344 C 61.304688 204.917969 61.949219 205.949219 62.207031 206.722656 C 61.046875 207.105469 59.371094 207.363281 58.726562 207.363281 C 57.824219 207.234375 57.179688 206.851562 56.664062 206.207031 C 56.019531 205.5625 54.992188 203.628906 54.347656 202.597656 C 55.890625 202.46875 57.050781 202.597656 58.46875 203.113281 Z M 51.769531 200.40625 C 50.738281 200.664062 50.480469 201.824219 51.125 202.597656 C 52.15625 203.757812 52.929688 206.207031 54.605469 208.007812 C 55.503906 208.910156 56.792969 209.683594 58.339844 209.941406 C 59.5 210.070312 61.046875 209.941406 62.335938 209.554688 C 62.335938 210.972656 62.207031 212.132812 61.304688 214.195312 C 60.789062 215.484375 60.660156 216.515625 61.046875 217.546875 C 61.433594 218.578125 62.464844 219.089844 63.367188 219.21875 C 65.171875 219.476562 67.359375 218.703125 68.519531 217.417969 C 69.550781 216.386719 68.261719 215.226562 67.359375 215.742188 C 66.460938 216.257812 65.300781 216.644531 64.398438 216.644531 C 63.109375 216.644531 63.367188 215.484375 64.398438 215.226562 C 65.945312 214.839844 67.746094 214.195312 68.777344 214.066406 C 69.292969 213.9375 69.808594 213.9375 70.324219 213.808594 C 71.097656 213.808594 71.613281 213.164062 71.613281 212.390625 C 71.613281 211.617188 70.96875 211.101562 70.195312 211.101562 C 69.550781 211.101562 68.90625 211.230469 68.261719 211.359375 C 67.230469 211.617188 65.945312 212.003906 64.65625 212.261719 C 65.816406 207.75 64.65625 204.273438 62.207031 202.210938 C 60.789062 200.921875 58.984375 200.277344 57.179688 199.890625 C 56.535156 199.761719 55.761719 199.761719 54.863281 199.761719 C 54.089844 199.890625 52.800781 200.148438 51.769531 200.40625 Z M 51.769531 200.40625 " fill-opacity="1" fill-rule="evenodd"/><path fill="#0b5d1e" d="M 59.628906 211.617188 C 57.695312 211.230469 55.890625 211.101562 53.832031 211.746094 C 50.222656 212.777344 47.257812 214.96875 45.96875 218.578125 C 44.679688 222.183594 45.066406 226.953125 47.386719 232.878906 C 48.933594 236.875 50.609375 240.097656 52.800781 242.285156 C 55.117188 244.347656 58.210938 245.121094 61.691406 244.089844 C 62.464844 243.832031 62.851562 243.445312 63.238281 243.316406 C 63.625 243.058594 63.753906 243.058594 63.753906 243.058594 C 63.753906 243.058594 63.882812 243.058594 64.269531 243.316406 C 64.65625 243.574219 65.042969 243.832031 65.816406 244.089844 C 68.648438 244.863281 71.097656 244.734375 73.160156 243.445312 C 75.222656 242.285156 76.769531 240.226562 78.058594 237.777344 C 78.445312 237.132812 78.1875 236.359375 77.542969 235.972656 C 76.898438 235.585938 76.125 235.84375 75.738281 236.488281 C 74.578125 238.808594 73.289062 240.355469 71.871094 241.128906 C 70.453125 241.902344 68.90625 242.15625 66.71875 241.515625 C 66.589844 241.515625 66.332031 241.257812 65.945312 241 C 65.558594 240.742188 64.914062 240.355469 64.011719 240.355469 C 63.109375 240.355469 62.464844 240.742188 62.078125 241 C 61.691406 241.257812 61.304688 241.386719 61.175781 241.515625 C 58.210938 242.414062 56.535156 241.902344 54.863281 240.355469 C 53.1875 238.808594 51.640625 235.84375 50.09375 231.976562 C 47.902344 226.308594 47.773438 222.3125 48.675781 219.476562 C 49.707031 216.773438 51.769531 215.097656 54.734375 214.324219 C 56.40625 213.9375 57.695312 213.9375 59.242188 214.195312 C 60.015625 214.324219 60.660156 213.808594 60.789062 213.164062 C 60.789062 212.390625 60.273438 211.746094 59.628906 211.617188 Z M 59.628906 211.617188 " fill-opacity="1" fill-rule="evenodd"/><path fill="#0b5d1e" d="M 118.132812 231.847656 C 118.390625 232.105469 118.777344 232.234375 119.035156 232.492188 C 119.035156 232.878906 119.035156 233.265625 119.164062 233.652344 L 117.101562 233.652344 Z M 115.8125 228.757812 C 115.941406 229.144531 116.070312 229.402344 116.199219 229.789062 L 113.496094 234.296875 C 112.980469 235.199219 113.625 236.359375 114.652344 236.359375 L 119.9375 236.359375 C 120.195312 236.617188 120.324219 237.003906 120.582031 237.261719 C 116.714844 237.519531 112.464844 238.550781 108.855469 241.515625 C 108.597656 241.773438 108.597656 241.644531 108.46875 241.644531 C 108.46875 241.644531 108.339844 241.644531 108.339844 241.515625 L 105.761719 237.132812 C 105.761719 237.003906 105.761719 237.003906 105.761719 237.003906 C 105.761719 237.003906 105.761719 236.875 106.148438 236.746094 C 110.144531 235.328125 113.625 232.621094 115.8125 228.757812 Z M 127.925781 211.617188 C 128.3125 212.003906 128.957031 212.132812 129.601562 211.875 C 131.921875 210.457031 134.886719 211.359375 136.304688 213.679688 C 136.5625 214.195312 136.820312 214.710938 136.820312 215.226562 C 136.949219 216 137.589844 216.386719 138.363281 216.257812 C 140.296875 216 142.359375 216.902344 143.261719 218.578125 C 144.292969 220.25 144.164062 222.441406 142.875 223.988281 C 142.617188 224.246094 142.488281 224.761719 142.617188 225.019531 C 142.617188 225.277344 142.875 225.535156 143.003906 225.792969 C 143.390625 226.179688 143.777344 226.566406 144.035156 227.082031 C 145.453125 229.402344 144.550781 232.363281 142.230469 233.78125 C 141.714844 234.039062 141.457031 234.683594 141.585938 235.328125 C 142.230469 237.519531 141.199219 239.710938 139.265625 240.871094 C 138.363281 241.386719 137.332031 241.644531 136.304688 241.515625 C 136.949219 240.226562 137.203125 238.679688 136.820312 237.261719 C 137.847656 235.457031 137.71875 233.265625 136.691406 231.332031 C 135.789062 229.789062 133.984375 229.144531 132.179688 228.886719 C 131.40625 227.339844 129.988281 226.308594 128.570312 226.050781 C 127.023438 225.664062 125.476562 226.050781 124.191406 226.695312 C 123.546875 227.082031 123.289062 227.855469 123.675781 228.5 C 124.0625 229.144531 124.835938 229.402344 125.476562 229.015625 C 126.25 228.628906 127.152344 228.5 128.054688 228.628906 C 128.828125 228.757812 129.472656 229.273438 129.988281 230.175781 C 130.246094 230.6875 130.761719 230.945312 131.277344 230.945312 C 132.566406 230.816406 133.726562 231.460938 134.371094 232.621094 C 135.015625 233.78125 135.015625 235.199219 134.242188 236.230469 C 133.984375 236.617188 133.984375 237.003906 134.113281 237.519531 C 134.628906 238.808594 134.371094 240.355469 132.953125 241.386719 C 131.535156 242.414062 129.601562 241.902344 128.828125 240.484375 C 128.570312 239.96875 128.441406 239.324219 128.441406 238.679688 C 128.570312 237.777344 127.925781 237.132812 127.023438 237.132812 C 126.507812 237.132812 125.992188 237.132812 125.351562 237.132812 C 123.933594 236.875 122.773438 236.101562 122 234.8125 C 121.484375 233.910156 121.226562 233.007812 121.355469 231.976562 C 121.355469 231.460938 121.097656 230.945312 120.582031 230.6875 C 119.679688 230.304688 118.90625 229.53125 118.519531 228.757812 C 117.746094 227.46875 117.617188 226.050781 118.132812 224.761719 C 118.390625 224.246094 118.90625 223.730469 119.035156 223.214844 C 119.421875 222.183594 119.164062 221.667969 118.390625 221.28125 C 117.746094 221.023438 117.230469 220.636719 116.972656 220.121094 C 116.070312 218.191406 116.972656 216.515625 118.519531 216 C 119.035156 215.871094 119.421875 215.355469 119.421875 214.839844 C 119.550781 213.164062 120.453125 211.746094 121.871094 210.972656 C 122.644531 210.457031 123.546875 210.328125 124.578125 210.328125 C 125.734375 210.070312 127.023438 210.585938 127.925781 211.617188 Z M 117.488281 213.421875 C 116.070312 213.9375 114.652344 215.355469 114.394531 216.644531 C 113.625 219.476562 114.136719 221.410156 116.328125 222.699219 C 114.007812 226.695312 111.046875 232.363281 105.375 234.296875 C 104.472656 234.683594 103.699219 235.328125 103.441406 236.101562 C 103.183594 236.875 103.3125 237.777344 103.699219 238.550781 L 104.988281 240.742188 L 106.277344 242.929688 C 106.664062 243.703125 107.4375 244.21875 108.339844 244.347656 C 109.242188 244.476562 110.144531 244.21875 110.917969 243.574219 C 115.425781 239.710938 121.871094 239.839844 126.507812 239.839844 C 126.507812 240.484375 126.507812 241.257812 126.894531 241.773438 C 128.441406 244.347656 131.792969 245.378906 134.5 243.832031 C 134.757812 243.703125 134.886719 243.574219 135.144531 243.445312 C 137.078125 243.960938 139.136719 244.21875 140.941406 243.1875 C 143.648438 241.644531 144.9375 238.421875 144.421875 235.457031 C 147.386719 233.136719 148.546875 229.144531 146.613281 225.921875 C 146.355469 225.40625 145.96875 225.148438 145.582031 224.632812 C 146.871094 222.3125 147.128906 219.605469 145.710938 217.289062 C 144.421875 214.96875 141.84375 213.808594 139.265625 213.808594 C 139.136719 213.292969 139.007812 212.777344 138.75 212.261719 C 136.820312 208.910156 132.824219 208.007812 129.34375 209.425781 C 128.183594 208.523438 127.023438 207.621094 125.09375 207.492188 C 123.160156 207.363281 122.128906 207.75 120.582031 208.652344 C 118.90625 209.554688 118.003906 211.488281 117.488281 213.421875 Z M 117.488281 213.421875 " fill-opacity="1" fill-rule="nonzero"/><path fill="#0b5d1e" d="M 123.675781 214.195312 C 123.03125 214.582031 122.773438 215.355469 123.160156 216 C 123.546875 216.644531 124.320312 216.902344 124.964844 216.515625 C 125.863281 216 126.894531 216.257812 127.539062 217.289062 C 127.539062 217.417969 127.667969 217.417969 127.667969 217.546875 C 127.925781 218.191406 128.699219 218.578125 129.472656 218.320312 C 130.503906 217.933594 131.921875 218.320312 132.566406 219.476562 C 133.339844 220.765625 132.824219 222.183594 131.792969 222.828125 C 131.148438 223.214844 130.890625 223.988281 131.277344 224.632812 C 131.664062 225.277344 132.4375 225.535156 133.082031 225.148438 C 135.53125 223.730469 136.304688 220.636719 134.886719 218.191406 C 133.855469 216.386719 131.792969 215.613281 129.730469 215.871094 C 129.085938 214.96875 128.183594 214.195312 127.152344 213.9375 C 125.992188 213.421875 124.835938 213.550781 123.675781 214.195312 Z M 123.675781 214.195312 " fill-opacity="1" fill-rule="nonzero"/><g clip-path="url(#4fcc21f74f)"><path fill="#0b5d1e" d="M 140.167969 182.367188 C 141.714844 182.367188 143.261719 182.625 144.808594 183.398438 C 141.199219 184.296875 138.492188 186.359375 136.820312 189.582031 C 136.046875 188.9375 135.144531 188.421875 134.242188 188.035156 C 134.371094 186.746094 134.242188 185.585938 134.242188 184.425781 C 136.304688 183.140625 138.234375 182.496094 140.167969 182.367188 Z M 124.191406 175.921875 C 125.734375 176.695312 128.3125 178.5 129.34375 179.53125 C 131.019531 181.207031 132.050781 183.398438 131.921875 187.003906 C 129.988281 186.359375 128.054688 185.972656 126.378906 185.84375 C 126.765625 182.625 126.25 178.5 124.191406 175.921875 Z M 146.097656 176.4375 C 144.035156 177.210938 140.8125 178.5 139.394531 180.304688 C 138.878906 180.304688 138.492188 180.304688 137.976562 180.433594 C 137.976562 178.886719 137.847656 177.597656 137.460938 176.308594 C 138.75 175.792969 139.910156 175.535156 141.457031 175.535156 C 142.875 175.535156 144.421875 175.921875 146.097656 176.4375 Z M 81.148438 173.085938 C 74.578125 180.949219 77.671875 194.867188 82.308594 202.339844 C 84.371094 205.820312 84.886719 207.75 85.015625 211.101562 C 85.144531 218.191406 85.917969 227.597656 89.65625 233.265625 C 91.199219 235.585938 92.488281 237.777344 92.488281 238.9375 C 92.488281 240.097656 92.359375 240.613281 91.84375 241 C 91.457031 241.386719 90.554688 241.773438 88.882812 241.773438 C 86.691406 241.773438 84.5 239.96875 82.953125 237.132812 C 81.40625 234.167969 80.632812 230.429688 81.40625 226.824219 C 82.308594 222.183594 82.4375 217.03125 79.730469 213.679688 C 77.671875 211.101562 74.449219 209.554688 72.128906 206.207031 C 69.808594 202.855469 68.003906 197.828125 68.90625 188.035156 C 69.679688 180.691406 72.257812 176.4375 75.09375 174.375 C 77.285156 172.828125 78.957031 172.828125 81.148438 173.085938 Z M 127.796875 169.996094 C 129.214844 170.769531 131.921875 172.570312 132.953125 173.601562 C 134.628906 175.277344 135.660156 177.46875 135.53125 181.078125 C 134.886719 181.335938 134.242188 181.59375 133.726562 181.980469 C 133.210938 180.304688 132.308594 179.015625 131.148438 177.855469 C 130.890625 177.597656 130.632812 177.339844 130.375 177.082031 C 130.246094 174.890625 128.699219 171.671875 127.796875 169.996094 Z M 97.515625 170.382812 C 98.675781 173.085938 100.480469 174.503906 102.023438 175.792969 C 100.996094 180.820312 100.480469 187.90625 100.222656 194.351562 C 100.09375 198.34375 99.964844 201.953125 99.964844 204.660156 C 98.933594 203.371094 97.773438 202.082031 97.386719 201.050781 C 96.226562 196.925781 96.355469 193.0625 96.613281 189.324219 C 96.613281 188.550781 96.097656 187.90625 95.324219 187.90625 C 94.550781 187.90625 93.90625 188.421875 93.90625 189.195312 C 93.648438 192.675781 93.777344 196.28125 94.421875 200.277344 C 94.808594 202.984375 96.742188 205.175781 98.289062 207.105469 C 99.191406 208.265625 99.707031 209.167969 99.835938 210.070312 C 99.707031 217.160156 98.804688 227.210938 95.710938 231.976562 C 95.066406 233.007812 94.292969 234.039062 93.777344 235.070312 C 93.132812 234.039062 92.488281 233.007812 91.84375 231.976562 C 88.753906 227.339844 87.722656 217.933594 87.722656 210.972656 C 87.722656 209.425781 88.625 207.878906 89.269531 206.851562 C 90.296875 205.175781 91.714844 203.242188 92.746094 201.179688 C 92.875 200.792969 92.875 200.40625 92.746094 200.019531 C 91.714844 197.828125 90.425781 195.25 89.527344 192.675781 C 88.625 190.097656 88.367188 187.648438 89.140625 185.972656 C 89.398438 185.328125 89.140625 184.554688 88.496094 184.167969 C 88.238281 184.039062 87.851562 184.039062 87.464844 184.167969 C 87.078125 184.296875 86.820312 184.554688 86.691406 184.941406 C 85.53125 187.648438 86.046875 190.613281 87.078125 193.449219 C 87.980469 196.023438 89.140625 198.472656 90.171875 200.535156 C 89.269531 202.339844 88.109375 204.015625 87.207031 205.5625 C 86.691406 204.144531 85.789062 202.726562 84.886719 201.179688 C 80.503906 193.449219 78.828125 183.78125 82.824219 175.664062 C 84.113281 173.34375 85.660156 171.15625 87.722656 169.222656 C 89.65625 167.417969 91.199219 166.644531 93.261719 166.644531 C 95.066406 166.515625 96.484375 167.804688 97.515625 170.382812 Z M 140.8125 166.257812 C 139.910156 168.191406 138.621094 171.15625 138.75 173.472656 C 137.976562 173.601562 137.203125 173.730469 136.433594 174.117188 C 136.046875 173.34375 135.402344 172.570312 134.886719 171.925781 C 136.046875 169.867188 138.492188 167.417969 140.8125 166.257812 Z M 142.617188 163.550781 C 138.234375 164.453125 134.886719 167.03125 132.953125 170.382812 C 130.890625 168.964844 128.441406 167.933594 125.734375 167.03125 C 124.578125 166.644531 123.675781 167.933594 124.320312 168.964844 C 125.992188 171.15625 127.28125 173.214844 127.667969 175.40625 C 125.992188 174.503906 124.0625 173.730469 122.128906 173.085938 C 120.96875 172.699219 119.9375 173.988281 120.710938 175.019531 C 123.289062 178.371094 124.964844 181.464844 123.675781 185.972656 C 123.03125 186.101562 122 186.230469 121.097656 186.488281 C 119.808594 177.210938 116.457031 171.542969 112.59375 169.09375 C 110.53125 167.804688 108.210938 167.675781 106.277344 168.578125 C 104.601562 169.351562 103.441406 170.898438 102.667969 172.957031 C 101.511719 172.054688 100.609375 171.027344 99.835938 169.351562 C 98.546875 166.386719 96.613281 164.195312 93.519531 163.9375 C 90.425781 163.679688 88.109375 164.96875 86.175781 166.644531 C 84.371094 168.320312 83.597656 169.738281 82.695312 171.027344 C 79.988281 169.867188 76.382812 170.125 73.289062 172.570312 C 69.808594 175.277344 66.972656 180.304688 66.074219 188.164062 C 65.300781 198.085938 67.230469 204.015625 69.9375 207.878906 C 72.773438 211.746094 76.125 213.550781 77.671875 215.484375 C 79.472656 217.675781 79.601562 222.183594 78.828125 226.4375 C 77.929688 230.6875 78.828125 235.070312 80.632812 238.421875 C 82.4375 241.902344 85.402344 244.476562 88.882812 244.476562 C 91.070312 244.476562 92.617188 243.960938 93.777344 242.929688 L 94.035156 242.929688 C 95.066406 243.960938 96.742188 244.476562 98.933594 244.476562 C 100.609375 244.476562 102.28125 243.832031 103.570312 242.800781 C 104.214844 242.414062 104.34375 241.515625 103.828125 240.871094 C 103.441406 240.226562 102.539062 240.226562 101.898438 240.613281 C 100.867188 241.386719 99.835938 241.773438 98.804688 241.773438 C 97.128906 241.773438 96.226562 241.386719 95.839844 241 C 95.453125 240.613281 95.195312 240.097656 95.195312 238.9375 C 95.195312 237.777344 96.484375 235.585938 98.03125 233.265625 C 101.769531 227.597656 102.410156 218.191406 102.667969 211.101562 C 102.796875 210.585938 102.796875 210.199219 102.667969 209.683594 C 102.667969 209.554688 102.667969 209.425781 102.667969 209.296875 C 102.667969 207.492188 102.667969 201.308594 102.925781 194.222656 C 103.183594 187.132812 103.828125 179.273438 104.988281 174.632812 C 105.503906 172.441406 106.535156 171.285156 107.566406 170.769531 C 108.597656 170.253906 109.886719 170.253906 111.304688 171.15625 C 114.265625 172.957031 117.617188 178.371094 118.648438 188.035156 C 119.679688 197.699219 117.875 202.855469 115.425781 206.207031 C 113.109375 209.554688 109.886719 211.101562 107.824219 213.679688 C 105.117188 217.03125 105.246094 222.183594 106.148438 226.824219 C 106.277344 227.726562 106.40625 228.628906 106.40625 229.53125 C 106.40625 230.304688 107.050781 230.816406 107.695312 230.816406 C 108.46875 230.816406 108.984375 230.175781 108.984375 229.53125 C 108.984375 228.5 108.855469 227.46875 108.597656 226.4375 C 107.695312 222.183594 107.953125 217.675781 109.757812 215.484375 C 111.304688 213.550781 114.652344 211.746094 117.488281 207.878906 C 120.195312 204.144531 122 198.472656 121.226562 189.066406 C 123.933594 188.292969 127.410156 188.292969 130.632812 189.453125 C 133.597656 190.484375 135.789062 192.03125 137.332031 194.09375 L 131.277344 196.796875 C 130.761719 197.054688 130.503906 197.699219 130.761719 198.214844 C 131.019531 198.730469 131.664062 198.988281 132.179688 198.730469 L 138.621094 196.023438 C 140.167969 199.117188 140.683594 203.242188 139.910156 208.652344 C 139.78125 209.425781 140.296875 210.070312 141.070312 210.199219 C 141.84375 210.328125 142.488281 209.8125 142.617188 209.039062 C 143.390625 203.371094 143.003906 198.601562 141.070312 194.867188 C 140.425781 193.578125 139.652344 192.417969 138.621094 191.386719 C 140.425781 187.003906 143.648438 185.714844 147.902344 184.8125 C 149.058594 184.554688 149.1875 182.882812 148.03125 182.496094 C 146.097656 181.851562 144.164062 181.207031 142.230469 180.820312 C 144.035156 179.273438 146.226562 178.5 148.929688 177.855469 C 150.089844 177.597656 150.21875 175.921875 149.058594 175.535156 C 146.613281 174.632812 144.292969 173.859375 141.972656 173.601562 C 141.585938 173.601562 141.328125 173.472656 140.941406 173.472656 C 140.941406 170.511719 141.972656 167.933594 143.777344 165.355469 C 144.679688 164.195312 143.648438 163.292969 142.617188 163.550781 Z M 142.617188 163.550781 " fill-opacity="1" fill-rule="nonzero"/></g><path fill="#0b5d1e" d="M 73.160156 192.417969 C 72.386719 192.546875 71.871094 193.191406 72 193.835938 C 72.773438 202.597656 76.769531 206.207031 80.246094 209.941406 C 80.761719 210.457031 81.535156 210.585938 82.179688 210.070312 C 82.695312 209.554688 82.824219 208.78125 82.308594 208.136719 C 78.699219 204.144531 75.351562 201.566406 74.707031 193.578125 C 74.578125 192.933594 73.933594 192.417969 73.160156 192.417969 Z M 73.160156 192.417969 " fill-opacity="1" fill-rule="nonzero"/><path fill="#0b5d1e" d="M 114.652344 192.417969 C 113.878906 192.417969 113.238281 192.933594 113.238281 193.707031 C 112.59375 201.695312 109.242188 204.273438 105.632812 208.265625 C 105.117188 208.78125 105.246094 209.683594 105.761719 210.199219 C 106.277344 210.714844 107.179688 210.585938 107.695312 210.070312 C 111.175781 206.335938 115.167969 202.726562 115.941406 193.964844 C 115.941406 193.191406 115.296875 192.417969 114.652344 192.417969 Z M 114.652344 192.417969 " fill-opacity="1" fill-rule="nonzero"/><path fill="#0b5d1e" d="M 124.835938 192.933594 C 124.578125 192.933594 124.320312 192.933594 124.0625 193.191406 C 123.546875 193.578125 123.417969 194.222656 123.804688 194.738281 L 126.765625 198.730469 L 123.675781 200.019531 C 123.160156 200.277344 122.902344 200.921875 123.160156 201.4375 C 123.417969 201.953125 124.0625 202.210938 124.578125 201.953125 L 128.054688 200.40625 L 132.308594 206.207031 C 132.695312 206.722656 133.339844 206.851562 133.855469 206.464844 C 134.371094 206.078125 134.5 205.433594 134.113281 204.917969 L 125.476562 193.320312 C 125.476562 193.191406 125.09375 192.933594 124.835938 192.933594 Z M 124.835938 192.933594 " fill-opacity="1" fill-rule="nonzero"/><g clip-path="url(#f5dae3b96b)"><g clip-path="url(#dd48a3372e)"><g clip-path="url(#3b4c0d1c91)"><path fill="#d17a22" d="M 149.039062 154.109375 C 148.34375 153.957031 147.640625 153.921875 146.933594 154.007812 C 146.226562 154.09375 145.550781 154.296875 144.914062 154.609375 C 144.273438 154.925781 143.703125 155.339844 143.207031 155.851562 C 142.707031 156.359375 142.308594 156.9375 142.007812 157.585938 C 141.078125 159.632812 140.261719 161.726562 139.558594 163.867188 C 140.296875 161.738281 140.921875 159.582031 141.425781 157.386719 C 141.582031 156.691406 141.613281 155.988281 141.527344 155.28125 C 141.441406 154.574219 141.242188 153.902344 140.925781 153.261719 C 140.609375 152.621094 140.199219 152.054688 139.6875 151.554688 C 139.175781 151.058594 138.597656 150.660156 137.953125 150.359375 C 135.902344 149.429688 133.808594 148.613281 131.671875 147.90625 C 133.796875 148.648438 135.957031 149.269531 138.148438 149.777344 C 138.84375 149.929688 139.546875 149.964844 140.253906 149.878906 C 140.960938 149.792969 141.636719 149.59375 142.277344 149.277344 C 142.914062 148.960938 143.484375 148.546875 143.980469 148.035156 C 144.480469 147.527344 144.878906 146.949219 145.179688 146.300781 C 146.109375 144.253906 146.925781 142.160156 147.628906 140.019531 C 146.890625 142.148438 146.265625 144.304688 145.761719 146.5 C 145.605469 147.195312 145.574219 147.898438 145.660156 148.605469 C 145.746094 149.3125 145.945312 149.984375 146.261719 150.625 C 146.578125 151.265625 146.988281 151.832031 147.5 152.332031 C 148.011719 152.828125 148.589844 153.226562 149.234375 153.527344 C 151.285156 154.457031 153.378906 155.273438 155.515625 155.980469 C 153.390625 155.238281 151.230469 154.617188 149.039062 154.109375 Z M 149.039062 154.109375 " fill-opacity="1" fill-rule="nonzero"/></g></g></g><g clip-path="url(#4f25645fcb)"><g clip-path="url(#69273e7c19)"><g clip-path="url(#46a675b120)"><path fill="#d17a22" d="M 155.261719 169.378906 C 154.835938 169.285156 154.40625 169.265625 153.976562 169.316406 C 153.542969 169.371094 153.132812 169.492188 152.742188 169.683594 C 152.351562 169.878906 152.003906 170.128906 151.699219 170.441406 C 151.394531 170.753906 151.152344 171.105469 150.96875 171.5 C 150.402344 172.753906 149.902344 174.03125 149.472656 175.335938 C 149.925781 174.039062 150.304688 172.71875 150.613281 171.378906 C 150.707031 170.957031 150.730469 170.527344 150.675781 170.09375 C 150.625 169.664062 150.5 169.25 150.308594 168.859375 C 150.113281 168.472656 149.863281 168.125 149.550781 167.820312 C 149.238281 167.515625 148.886719 167.273438 148.492188 167.089844 C 147.242188 166.519531 145.960938 166.023438 144.65625 165.59375 C 145.957031 166.042969 147.273438 166.421875 148.613281 166.734375 C 149.039062 166.828125 149.464844 166.847656 149.898438 166.796875 C 150.332031 166.742188 150.742188 166.621094 151.132812 166.425781 C 151.523438 166.234375 151.871094 165.980469 152.171875 165.671875 C 152.476562 165.359375 152.722656 165.007812 152.90625 164.613281 C 153.472656 163.359375 153.972656 162.082031 154.402344 160.777344 C 153.949219 162.074219 153.570312 163.394531 153.261719 164.730469 C 153.164062 165.15625 153.144531 165.585938 153.199219 166.019531 C 153.25 166.449219 153.371094 166.859375 153.566406 167.25 C 153.757812 167.640625 154.011719 167.988281 154.320312 168.292969 C 154.632812 168.597656 154.988281 168.839844 155.382812 169.023438 C 156.632812 169.589844 157.910156 170.089844 159.214844 170.519531 C 157.917969 170.070312 156.601562 169.6875 155.261719 169.378906 Z M 155.261719 169.378906 " fill-opacity="1" fill-rule="nonzero"/></g></g></g><g fill="#0b5d1e" fill-opacity="1"><g transform="translate(158.533636, 221.001206)"><g><path d="M 11.25 0.308594 C 9.800781 0.308594 8.445312 0.0507812 7.1875 -0.46875 C 5.929688 -0.988281 4.832031 -1.714844 3.894531 -2.644531 C 2.953125 -3.574219 2.21875 -4.660156 1.691406 -5.898438 C 1.160156 -7.136719 0.898438 -8.476562 0.898438 -9.917969 C 0.898438 -11.367188 1.167969 -12.707031 1.710938 -13.941406 C 2.253906 -15.175781 3.007812 -16.257812 3.96875 -17.183594 C 4.933594 -18.109375 6.058594 -18.828125 7.34375 -19.34375 C 8.628906 -19.859375 10.011719 -20.117188 11.488281 -20.117188 C 13.191406 -20.117188 14.742188 -19.808594 16.136719 -19.191406 C 17.535156 -18.574219 18.6875 -17.714844 19.597656 -16.621094 L 16.609375 -13.632812 C 15.972656 -14.449219 15.222656 -15.0625 14.363281 -15.480469 C 13.503906 -15.894531 12.53125 -16.105469 11.445312 -16.105469 C 10.277344 -16.105469 9.238281 -15.847656 8.324219 -15.332031 C 7.414062 -14.816406 6.699219 -14.097656 6.179688 -13.171875 C 5.660156 -12.246094 5.402344 -11.164062 5.402344 -9.929688 C 5.402344 -8.695312 5.652344 -7.613281 6.15625 -6.675781 C 6.664062 -5.742188 7.355469 -5.011719 8.234375 -4.488281 C 9.113281 -3.964844 10.125 -3.703125 11.265625 -3.703125 C 12.421875 -3.703125 13.414062 -3.921875 14.230469 -4.355469 C 15.050781 -4.789062 15.675781 -5.425781 16.109375 -6.261719 C 16.546875 -7.101562 16.761719 -8.113281 16.761719 -9.300781 L 19.695312 -7.351562 L 10.855469 -7.492188 L 10.855469 -11.207031 L 21.25 -11.207031 L 21.25 -10.5625 C 21.25 -8.195312 20.824219 -6.203125 19.976562 -4.585938 C 19.125 -2.96875 17.949219 -1.75 16.445312 -0.925781 C 14.945312 -0.101562 13.214844 0.308594 11.25 0.308594 Z M 11.25 0.308594 "/></g></g></g><g fill="#0b5d1e" fill-opacity="1"><g transform="translate(180.552218, 221.001206)"><g><path d="M 1.515625 0 L 1.515625 -13.632812 L 5.808594 -13.632812 L 5.808594 0 Z M 5.808594 -7.476562 L 3.996094 -8.878906 C 4.351562 -10.480469 4.957031 -11.71875 5.808594 -12.597656 C 6.660156 -13.476562 7.824219 -13.914062 9.300781 -13.914062 C 9.953125 -13.914062 10.53125 -13.816406 11.03125 -13.621094 C 11.53125 -13.425781 11.96875 -13.121094 12.34375 -12.707031 L 9.792969 -9.484375 C 9.605469 -9.6875 9.371094 -9.84375 9.09375 -9.953125 C 8.816406 -10.058594 8.5 -10.113281 8.136719 -10.113281 C 7.425781 -10.113281 6.859375 -9.894531 6.4375 -9.457031 C 6.019531 -9.019531 5.808594 -8.359375 5.808594 -7.476562 Z M 5.808594 -7.476562 "/></g></g></g><g fill="#0b5d1e" fill-opacity="1"><g transform="translate(193.00604, 221.001206)"><g><path d="M 8.234375 0.308594 C 6.757812 0.308594 5.445312 0.00390625 4.300781 -0.601562 C 3.152344 -1.210938 2.253906 -2.054688 1.597656 -3.136719 C 0.945312 -4.214844 0.617188 -5.441406 0.617188 -6.816406 C 0.617188 -8.183594 0.9375 -9.402344 1.578125 -10.472656 C 2.21875 -11.542969 3.09375 -12.386719 4.203125 -13.011719 C 5.308594 -13.632812 6.550781 -13.941406 7.925781 -13.941406 C 9.273438 -13.941406 10.460938 -13.652344 11.496094 -13.066406 C 12.527344 -12.480469 13.339844 -11.675781 13.929688 -10.648438 C 14.519531 -9.617188 14.8125 -8.445312 14.8125 -7.125 C 14.8125 -6.875 14.800781 -6.613281 14.769531 -6.339844 C 14.742188 -6.070312 14.691406 -5.761719 14.617188 -5.414062 L 2.863281 -5.371094 L 2.863281 -8.316406 L 12.792969 -8.359375 L 10.941406 -7.113281 C 10.921875 -7.898438 10.796875 -8.550781 10.570312 -9.070312 C 10.339844 -9.585938 10.007812 -9.984375 9.574219 -10.253906 C 9.140625 -10.523438 8.597656 -10.660156 7.953125 -10.660156 C 7.28125 -10.660156 6.695312 -10.507812 6.199219 -10.199219 C 5.703125 -9.890625 5.324219 -9.453125 5.058594 -8.886719 C 4.789062 -8.320312 4.65625 -7.640625 4.65625 -6.84375 C 4.65625 -6.042969 4.800781 -5.351562 5.085938 -4.777344 C 5.371094 -4.203125 5.78125 -3.761719 6.3125 -3.457031 C 6.84375 -3.152344 7.480469 -3 8.21875 -3 C 8.894531 -3 9.5 -3.117188 10.042969 -3.34375 C 10.585938 -3.574219 11.0625 -3.921875 11.472656 -4.390625 L 13.832031 -2.035156 C 13.15625 -1.257812 12.34375 -0.671875 11.390625 -0.28125 C 10.4375 0.113281 9.382812 0.308594 8.234375 0.308594 Z M 8.234375 0.308594 "/></g></g></g><g fill="#0b5d1e" fill-opacity="1"><g transform="translate(208.376974, 221.001206)"><g><path d="M 8.234375 0.308594 C 6.757812 0.308594 5.445312 0.00390625 4.300781 -0.601562 C 3.152344 -1.210938 2.253906 -2.054688 1.597656 -3.136719 C 0.945312 -4.214844 0.617188 -5.441406 0.617188 -6.816406 C 0.617188 -8.183594 0.9375 -9.402344 1.578125 -10.472656 C 2.21875 -11.542969 3.09375 -12.386719 4.203125 -13.011719 C 5.308594 -13.632812 6.550781 -13.941406 7.925781 -13.941406 C 9.273438 -13.941406 10.460938 -13.652344 11.496094 -13.066406 C 12.527344 -12.480469 13.339844 -11.675781 13.929688 -10.648438 C 14.519531 -9.617188 14.8125 -8.445312 14.8125 -7.125 C 14.8125 -6.875 14.800781 -6.613281 14.769531 -6.339844 C 14.742188 -6.070312 14.691406 -5.761719 14.617188 -5.414062 L 2.863281 -5.371094 L 2.863281 -8.316406 L 12.792969 -8.359375 L 10.941406 -7.113281 C 10.921875 -7.898438 10.796875 -8.550781 10.570312 -9.070312 C 10.339844 -9.585938 10.007812 -9.984375 9.574219 -10.253906 C 9.140625 -10.523438 8.597656 -10.660156 7.953125 -10.660156 C 7.28125 -10.660156 6.695312 -10.507812 6.199219 -10.199219 C 5.703125 -9.890625 5.324219 -9.453125 5.058594 -8.886719 C 4.789062 -8.320312 4.65625 -7.640625 4.65625 -6.84375 C 4.65625 -6.042969 4.800781 -5.351562 5.085938 -4.777344 C 5.371094 -4.203125 5.78125 -3.761719 6.3125 -3.457031 C 6.84375 -3.152344 7.480469 -3 8.21875 -3 C 8.894531 -3 9.5 -3.117188 10.042969 -3.34375 C 10.585938 -3.574219 11.0625 -3.921875 11.472656 -4.390625 L 13.832031 -2.035156 C 13.15625 -1.257812 12.34375 -0.671875 11.390625 -0.28125 C 10.4375 0.113281 9.382812 0.308594 8.234375 0.308594 Z M 8.234375 0.308594 "/></g></g></g><g fill="#0b5d1e" fill-opacity="1"><g transform="translate(223.747908, 221.001206)"><g><path d="M 10.519531 0 L 10.519531 -7.757812 C 10.519531 -8.476562 10.300781 -9.054688 9.859375 -9.488281 C 9.421875 -9.925781 8.863281 -10.140625 8.179688 -10.140625 C 7.71875 -10.140625 7.308594 -10.042969 6.949219 -9.847656 C 6.589844 -9.652344 6.308594 -9.371094 6.109375 -9.011719 C 5.90625 -8.652344 5.808594 -8.234375 5.808594 -7.757812 L 4.136719 -8.570312 C 4.136719 -9.644531 4.375 -10.582031 4.847656 -11.382812 C 5.320312 -12.183594 5.96875 -12.804688 6.800781 -13.25 C 7.632812 -13.691406 8.574219 -13.914062 9.628906 -13.914062 C 10.625 -13.914062 11.515625 -13.675781 12.296875 -13.199219 C 13.074219 -12.722656 13.691406 -12.089844 14.140625 -11.304688 C 14.589844 -10.519531 14.8125 -9.660156 14.8125 -8.726562 L 14.8125 0 Z M 1.515625 0 L 1.515625 -13.632812 L 5.808594 -13.632812 L 5.808594 0 Z M 1.515625 0 "/></g></g></g><g fill="#2b0504" fill-opacity="1"><g transform="translate(239.80357, 221.001206)"><g><path d="M 11.25 0.308594 C 9.800781 0.308594 8.445312 0.0507812 7.1875 -0.46875 C 5.929688 -0.988281 4.832031 -1.714844 3.894531 -2.644531 C 2.953125 -3.574219 2.21875 -4.660156 1.691406 -5.898438 C 1.160156 -7.136719 0.898438 -8.476562 0.898438 -9.917969 C 0.898438 -11.367188 1.167969 -12.707031 1.710938 -13.941406 C 2.253906 -15.175781 3.007812 -16.257812 3.96875 -17.183594 C 4.933594 -18.109375 6.058594 -18.828125 7.34375 -19.34375 C 8.628906 -19.859375 10.011719 -20.117188 11.488281 -20.117188 C 13.191406 -20.117188 14.742188 -19.808594 16.136719 -19.191406 C 17.535156 -18.574219 18.6875 -17.714844 19.597656 -16.621094 L 16.609375 -13.632812 C 15.972656 -14.449219 15.222656 -15.0625 14.363281 -15.480469 C 13.503906 -15.894531 12.53125 -16.105469 11.445312 -16.105469 C 10.277344 -16.105469 9.238281 -15.847656 8.324219 -15.332031 C 7.414062 -14.816406 6.699219 -14.097656 6.179688 -13.171875 C 5.660156 -12.246094 5.402344 -11.164062 5.402344 -9.929688 C 5.402344 -8.695312 5.652344 -7.613281 6.15625 -6.675781 C 6.664062 -5.742188 7.355469 -5.011719 8.234375 -4.488281 C 9.113281 -3.964844 10.125 -3.703125 11.265625 -3.703125 C 12.421875 -3.703125 13.414062 -3.921875 14.230469 -4.355469 C 15.050781 -4.789062 15.675781 -5.425781 16.109375 -6.261719 C 16.546875 -7.101562 16.761719 -8.113281 16.761719 -9.300781 L 19.695312 -7.351562 L 10.855469 -7.492188 L 10.855469 -11.207031 L 21.25 -11.207031 L 21.25 -10.5625 C 21.25 -8.195312 20.824219 -6.203125 19.976562 -4.585938 C 19.125 -2.96875 17.949219 -1.75 16.445312 -0.925781 C 14.945312 -0.101562 13.214844 0.308594 11.25 0.308594 Z M 11.25 0.308594 "/></g></g></g><g fill="#2b0504" fill-opacity="1"><g transform="translate(261.822151, 221.001206)"><g><path d="M 8.078125 0.308594 C 6.667969 0.308594 5.398438 -0.00390625 4.269531 -0.632812 C 3.144531 -1.257812 2.253906 -2.113281 1.597656 -3.199219 C 0.945312 -4.28125 0.617188 -5.5 0.617188 -6.84375 C 0.617188 -8.191406 0.941406 -9.398438 1.59375 -10.464844 C 2.242188 -11.53125 3.128906 -12.375 4.257812 -13.003906 C 5.382812 -13.628906 6.652344 -13.941406 8.066406 -13.941406 C 9.488281 -13.941406 10.757812 -13.632812 11.882812 -13.011719 C 13.003906 -12.386719 13.890625 -11.542969 14.546875 -10.472656 C 15.199219 -9.402344 15.527344 -8.191406 15.527344 -6.84375 C 15.527344 -5.5 15.203125 -4.28125 14.554688 -3.199219 C 13.902344 -2.113281 13.015625 -1.257812 11.894531 -0.632812 C 10.773438 -0.00390625 9.5 0.308594 8.078125 0.308594 Z M 8.066406 -3.589844 C 8.683594 -3.589844 9.226562 -3.726562 9.691406 -3.996094 C 10.160156 -4.269531 10.523438 -4.648438 10.78125 -5.140625 C 11.039062 -5.632812 11.164062 -6.195312 11.164062 -6.832031 C 11.164062 -7.46875 11.03125 -8.027344 10.765625 -8.507812 C 10.5 -8.988281 10.136719 -9.367188 9.679688 -9.636719 C 9.222656 -9.90625 8.683594 -10.042969 8.066406 -10.042969 C 7.46875 -10.042969 6.933594 -9.90625 6.464844 -9.628906 C 6 -9.355469 5.632812 -8.976562 5.371094 -8.492188 C 5.109375 -8.011719 4.980469 -7.453125 4.980469 -6.816406 C 4.980469 -6.191406 5.109375 -5.632812 5.371094 -5.140625 C 5.632812 -4.648438 6 -4.269531 6.464844 -3.996094 C 6.933594 -3.726562 7.46875 -3.589844 8.066406 -3.589844 Z M 8.066406 -3.589844 "/></g></g></g><g fill="#2b0504" fill-opacity="1"><g transform="translate(277.978461, 221.001206)"><g><path d="M 7.5625 0.308594 C 6.320312 0.308594 5.21875 0.0507812 4.253906 -0.464844 C 3.289062 -0.976562 2.53125 -1.691406 1.984375 -2.601562 C 1.4375 -3.511719 1.164062 -4.554688 1.164062 -5.734375 L 1.164062 -13.632812 L 5.457031 -13.632812 L 5.457031 -5.78125 C 5.457031 -5.308594 5.539062 -4.90625 5.707031 -4.566406 C 5.875 -4.230469 6.117188 -3.96875 6.4375 -3.78125 C 6.753906 -3.597656 7.132812 -3.507812 7.566406 -3.507812 C 8.207031 -3.507812 8.714844 -3.707031 9.089844 -4.109375 C 9.464844 -4.511719 9.652344 -5.070312 9.652344 -5.78125 L 9.652344 -13.632812 L 13.941406 -13.632812 L 13.941406 -5.738281 C 13.941406 -4.539062 13.671875 -3.488281 13.128906 -2.582031 C 12.585938 -1.675781 11.835938 -0.964844 10.878906 -0.457031 C 9.921875 0.0546875 8.816406 0.308594 7.5625 0.308594 Z M 7.5625 0.308594 "/></g></g></g><g fill="#2b0504" fill-opacity="1"><g transform="translate(293.096952, 221.001206)"><g><path d="M 1.515625 0 L 1.515625 -13.632812 L 5.808594 -13.632812 L 5.808594 0 Z M 5.808594 -7.476562 L 3.996094 -8.878906 C 4.351562 -10.480469 4.957031 -11.71875 5.808594 -12.597656 C 6.660156 -13.476562 7.824219 -13.914062 9.300781 -13.914062 C 9.953125 -13.914062 10.53125 -13.816406 11.03125 -13.621094 C 11.53125 -13.425781 11.96875 -13.121094 12.34375 -12.707031 L 9.792969 -9.484375 C 9.605469 -9.6875 9.371094 -9.84375 9.09375 -9.953125 C 8.816406 -10.058594 8.5 -10.113281 8.136719 -10.113281 C 7.425781 -10.113281 6.859375 -9.894531 6.4375 -9.457031 C 6.019531 -9.019531 5.808594 -8.359375 5.808594 -7.476562 Z M 5.808594 -7.476562 "/></g></g></g><g fill="#2b0504" fill-opacity="1"><g transform="translate(305.550774, 221.001206)"><g><path d="M 1.515625 0 L 1.515625 -13.632812 L 5.808594 -13.632812 L 5.808594 0 Z M 10.238281 0 L 10.238281 -7.96875 C 10.238281 -8.648438 10.03125 -9.183594 9.609375 -9.566406 C 9.1875 -9.949219 8.664062 -10.140625 8.039062 -10.140625 C 7.609375 -10.140625 7.222656 -10.054688 6.886719 -9.882812 C 6.550781 -9.710938 6.285156 -9.460938 6.09375 -9.140625 C 5.902344 -8.816406 5.808594 -8.425781 5.808594 -7.96875 L 4.136719 -8.695312 C 4.136719 -9.773438 4.375 -10.699219 4.847656 -11.472656 C 5.320312 -12.25 5.957031 -12.851562 6.761719 -13.277344 C 7.566406 -13.703125 8.472656 -13.914062 9.484375 -13.914062 C 10.425781 -13.914062 11.28125 -13.699219 12.042969 -13.269531 C 12.804688 -12.839844 13.410156 -12.238281 13.859375 -11.46875 C 14.308594 -10.695312 14.53125 -9.777344 14.53125 -8.710938 L 14.53125 0 Z M 18.964844 0 L 18.964844 -7.96875 C 18.964844 -8.648438 18.753906 -9.183594 18.332031 -9.566406 C 17.914062 -9.949219 17.390625 -10.140625 16.761719 -10.140625 C 16.34375 -10.140625 15.960938 -10.054688 15.621094 -9.882812 C 15.277344 -9.710938 15.011719 -9.460938 14.820312 -9.140625 C 14.628906 -8.816406 14.53125 -8.425781 14.53125 -7.96875 L 12.050781 -8.289062 C 12.097656 -9.449219 12.375 -10.449219 12.882812 -11.285156 C 13.394531 -12.121094 14.078125 -12.769531 14.933594 -13.226562 C 15.789062 -13.6875 16.75 -13.914062 17.816406 -13.914062 C 18.851562 -13.914062 19.78125 -13.695312 20.597656 -13.257812 C 21.417969 -12.816406 22.066406 -12.191406 22.542969 -11.375 C 23.019531 -10.5625 23.257812 -9.585938 23.257812 -8.445312 L 23.257812 0 Z M 18.964844 0 "/></g></g></g><g fill="#2b0504" fill-opacity="1"><g transform="translate(330.03768, 221.001206)"><g><path d="M 8.234375 0.308594 C 6.757812 0.308594 5.445312 0.00390625 4.300781 -0.601562 C 3.152344 -1.210938 2.253906 -2.054688 1.597656 -3.136719 C 0.945312 -4.214844 0.617188 -5.441406 0.617188 -6.816406 C 0.617188 -8.183594 0.9375 -9.402344 1.578125 -10.472656 C 2.21875 -11.542969 3.09375 -12.386719 4.203125 -13.011719 C 5.308594 -13.632812 6.550781 -13.941406 7.925781 -13.941406 C 9.273438 -13.941406 10.460938 -13.652344 11.496094 -13.066406 C 12.527344 -12.480469 13.339844 -11.675781 13.929688 -10.648438 C 14.519531 -9.617188 14.8125 -8.445312 14.8125 -7.125 C 14.8125 -6.875 14.800781 -6.613281 14.769531 -6.339844 C 14.742188 -6.070312 14.691406 -5.761719 14.617188 -5.414062 L 2.863281 -5.371094 L 2.863281 -8.316406 L 12.792969 -8.359375 L 10.941406 -7.113281 C 10.921875 -7.898438 10.796875 -8.550781 10.570312 -9.070312 C 10.339844 -9.585938 10.007812 -9.984375 9.574219 -10.253906 C 9.140625 -10.523438 8.597656 -10.660156 7.953125 -10.660156 C 7.28125 -10.660156 6.695312 -10.507812 6.199219 -10.199219 C 5.703125 -9.890625 5.324219 -9.453125 5.058594 -8.886719 C 4.789062 -8.320312 4.65625 -7.640625 4.65625 -6.84375 C 4.65625 -6.042969 4.800781 -5.351562 5.085938 -4.777344 C 5.371094 -4.203125 5.78125 -3.761719 6.3125 -3.457031 C 6.84375 -3.152344 7.480469 -3 8.21875 -3 C 8.894531 -3 9.5 -3.117188 10.042969 -3.34375 C 10.585938 -3.574219 11.0625 -3.921875 11.472656 -4.390625 L 13.832031 -2.035156 C 13.15625 -1.257812 12.34375 -0.671875 11.390625 -0.28125 C 10.4375 0.113281 9.382812 0.308594 8.234375 0.308594 Z M 8.234375 0.308594 "/></g></g></g><g fill="#2b0504" fill-opacity="1"><g transform="translate(345.408614, 221.001206)"><g><path d="M 3.449219 0 L 3.449219 -19.273438 L 7.742188 -19.273438 L 7.742188 0 Z M 0.363281 -9.988281 L 0.363281 -13.632812 L 10.828125 -13.632812 L 10.828125 -9.988281 Z M 0.363281 -9.988281 "/></g></g></g></svg>