<svg xmlns="http://www.w3.org/2000/svg" xmlns:xlink="http://www.w3.org/1999/xlink" width="500" zoomAndPan="magnify" viewBox="0 0 375 374.999991" height="500" preserveAspectRatio="xMidYMid meet" version="1.0"><defs><clipPath id="45344c8941"><path d="M 1 215.183594 L 374 215.183594 L 374 343.433594 L 1 343.433594 Z M 1 215.183594 " clip-rule="nonzero"/></clipPath><clipPath id="53007a3065"><path d="M 48.269531 182.621094 L 316 182.621094 L 316 317.25 L 48.269531 317.25 Z M 48.269531 182.621094 " clip-rule="nonzero"/></clipPath><clipPath id="bb50a9ba22"><path d="M 182.222656 182.621094 C 108.242188 182.621094 48.269531 212.757812 48.269531 249.9375 C 48.269531 287.113281 108.242188 317.25 182.222656 317.25 C 256.203125 317.25 316.175781 287.113281 316.175781 249.9375 C 316.175781 212.757812 256.203125 182.621094 182.222656 182.621094 Z M 182.222656 182.621094 " clip-rule="nonzero"/></clipPath><clipPath id="a47989148b"><path d="M 277 19 L 341 19 L 341 83 L 277 83 Z M 277 19 " clip-rule="nonzero"/></clipPath><clipPath id="d92e57e5d3"><path d="M 371.863281 36.777344 L 343.972656 119.1875 L 260.144531 90.8125 L 288.035156 8.40625 Z M 371.863281 36.777344 " clip-rule="nonzero"/></clipPath><clipPath id="4137f6aa8a"><path d="M 371.863281 36.777344 L 343.972656 119.1875 L 260.144531 90.8125 L 288.035156 8.40625 Z M 371.863281 36.777344 " clip-rule="nonzero"/></clipPath><clipPath id="6852257b9e"><path d="M 312 73 L 351 73 L 351 113 L 312 113 Z M 312 73 " clip-rule="nonzero"/></clipPath><clipPath id="011ae6cb18"><path d="M 371.863281 36.777344 L 343.972656 119.1875 L 260.144531 90.8125 L 288.035156 8.40625 Z M 371.863281 36.777344 " clip-rule="nonzero"/></clipPath><clipPath id="513b0f9f3f"><path d="M 371.863281 36.777344 L 343.972656 119.1875 L 260.144531 90.8125 L 288.035156 8.40625 Z M 371.863281 36.777344 " clip-rule="nonzero"/></clipPath></defs><g clip-path="url(#45344c8941)"><path fill="#2b0504" d="M 187.5 336.421875 C 232.988281 336.421875 271.8125 329.371094 297.570312 316.804688 C 265.1875 323.71875 226.046875 327.445312 187.5 327.445312 C 147.460938 327.445312 106.851562 323.414062 73.777344 315.992188 C 99.839844 328.925781 140.777344 336.421875 187.5 336.421875 Z M 278.726562 313.722656 C 333.785156 304.5 367.128906 287.515625 367.128906 271.304688 C 367.128906 247.464844 294.9375 221.910156 187.5 221.910156 C 80.0625 221.910156 7.871094 247.464844 7.871094 271.304688 C 7.871094 288.535156 45.53125 306.648438 106.9375 315.359375 C 103.128906 314.144531 99.195312 312.714844 95.277344 310.652344 C 92.160156 308.941406 88.992188 306.804688 86.371094 303.953125 C 83.8125 301.128906 81.433594 297.730469 80.742188 293.363281 C 80.402344 291.203125 80.707031 288.75 81.835938 286.714844 C 82.9375 284.710938 84.261719 283.207031 85.765625 281.726562 C 88.75 278.804688 92.339844 276.632812 96.066406 274.871094 C 99.828125 273.101562 103.734375 271.886719 107.472656 270.820312 C 111.246094 269.714844 115.019531 268.792969 118.71875 268.003906 C 126.15625 266.390625 133.410156 265.335938 140.328125 264.570312 C 154.183594 263.066406 166.703125 262.933594 177.1875 263.140625 C 187.683594 263.332031 196.136719 263.878906 201.988281 264.304688 C 207.824219 264.753906 211.039062 265.128906 211.039062 265.40625 C 211.015625 265.652344 207.773438 265.761719 201.914062 265.785156 C 196.078125 265.808594 187.609375 265.675781 177.1875 265.808594 C 166.753906 265.964844 154.363281 266.367188 140.726562 268.054688 C 133.898438 268.878906 126.785156 270.007812 119.507812 271.621094 C 115.878906 272.433594 112.214844 273.355469 108.515625 274.421875 C 104.800781 275.503906 101.175781 276.679688 97.691406 278.316406 C 94.210938 279.929688 90.96875 281.933594 88.375 284.445312 C 87.113281 285.65625 85.875 287.113281 85.132812 288.460938 C 84.417969 289.78125 84.1875 291.289062 84.394531 292.839844 C 84.84375 295.984375 86.796875 299.015625 89.042969 301.503906 C 91.285156 304.027344 94.078125 305.957031 96.964844 307.59375 C 102.800781 310.785156 109.097656 312.617188 114.933594 314.511719 C 119.058594 315.808594 123.039062 316.886719 126.835938 317.761719 C 145.398438 319.65625 165.722656 320.710938 187.5 320.710938 C 207.191406 320.710938 225.671875 319.847656 242.753906 318.308594 C 246.976562 317.761719 251.378906 317.09375 255.894531 316.207031 C 268.777344 313.648438 282.816406 309.304688 295.785156 301.601562 C 298.964844 299.707031 301.769531 297.4375 303.222656 294.574219 C 304.777344 291.675781 304.835938 288.4375 303.113281 285.949219 C 301.429688 283.363281 298.554688 281.703125 295.460938 280.5625 C 292.339844 279.433594 288.992188 278.511719 285.824219 277.578125 C 273.085938 273.960938 261.367188 271.535156 251.464844 269.871094 C 241.566406 268.234375 233.484375 267.3125 227.890625 266.730469 C 222.285156 266.125 219.179688 265.808594 219.179688 265.542969 C 219.203125 265.285156 222.320312 265.105469 227.988281 265.25 C 233.640625 265.382812 241.808594 265.917969 251.878906 267.226562 C 261.910156 268.550781 273.8125 270.722656 286.773438 274.230469 C 290.023438 275.125 293.25 275.953125 296.707031 277.164062 C 300.128906 278.378906 303.832031 280.332031 306.207031 283.910156 C 307.375 285.632812 308.164062 287.855469 308.136719 290.074219 C 308.164062 292.28125 307.554688 294.40625 306.574219 296.296875 C 304.59375 300.15625 301.136719 302.789062 297.765625 304.828125 C 291.550781 308.539062 285.121094 311.417969 278.726562 313.722656 Z M 36.164062 304.292969 C 21.546875 298.117188 1.136719 290.257812 1.136719 271.304688 C 1.136719 236.167969 95.894531 215.175781 187.5 215.175781 C 279.105469 215.175781 373.863281 236.167969 373.863281 271.304688 C 373.863281 283.5 362.75 292.101562 353.210938 297.644531 C 345.96875 301.84375 338.167969 305.082031 330.28125 307.8125 C 326.507812 309.148438 322.078125 309.632812 318.5 311.136719 C 314.785156 312.664062 312.007812 316.464844 308.574219 318.527344 C 304.523438 320.902344 300.347656 323.015625 296.066406 324.90625 C 286.40625 329.167969 276.277344 332.308594 266.035156 334.808594 C 240.425781 341.019531 213.816406 343.15625 187.5 343.15625 C 153.128906 343.15625 117.394531 339.855469 84.890625 327.976562 C 67.820312 321.742188 52.898438 311.34375 36.164062 304.292969 " fill-opacity="1" fill-rule="nonzero"/></g><g clip-path="url(#53007a3065)"><g clip-path="url(#bb50a9ba22)"><path fill="#ccdbdc" d="M 48.269531 182.621094 L 315.953125 182.621094 L 315.953125 317.25 L 48.269531 317.25 Z M 48.269531 182.621094 " fill-opacity="1" fill-rule="nonzero"/></g></g><path fill="#0b5d1e" d="M 84.648438 185.632812 C 87.03125 186.3125 88.730469 187.671875 90.429688 189.03125 C 92.128906 190.390625 93.828125 193.113281 94.507812 195.152344 C 91.449219 196.171875 87.03125 196.851562 85.328125 196.851562 C 82.949219 196.511719 81.25 195.492188 79.890625 193.792969 C 78.191406 192.09375 75.46875 186.992188 73.769531 184.273438 C 77.851562 183.933594 80.910156 184.273438 84.648438 185.632812 Z M 66.96875 178.492188 C 64.25 179.171875 63.570312 182.234375 65.269531 184.273438 C 67.988281 187.332031 70.03125 193.792969 74.449219 198.550781 C 76.828125 200.933594 80.230469 202.972656 84.308594 203.652344 C 87.371094 203.992188 91.449219 203.652344 94.851562 202.632812 C 94.851562 206.371094 94.507812 209.433594 92.128906 214.871094 C 90.769531 218.273438 90.429688 220.992188 91.449219 223.710938 C 92.46875 226.433594 95.191406 227.792969 97.570312 228.132812 C 102.328125 228.8125 108.109375 226.773438 111.167969 223.371094 C 113.890625 220.652344 110.488281 217.59375 108.109375 218.953125 C 105.730469 220.3125 102.667969 221.332031 100.289062 221.332031 C 96.890625 221.332031 97.570312 218.273438 100.289062 217.59375 C 104.371094 216.574219 109.128906 214.871094 111.851562 214.53125 C 113.210938 214.191406 114.570312 214.191406 115.929688 213.851562 C 117.96875 213.851562 119.328125 212.152344 119.328125 210.113281 C 119.328125 208.074219 117.628906 206.710938 115.589844 206.710938 C 113.890625 206.710938 112.191406 207.050781 110.488281 207.390625 C 107.769531 208.074219 104.371094 209.09375 100.96875 209.773438 C 104.03125 197.871094 100.96875 188.691406 94.507812 183.253906 C 90.769531 179.851562 86.007812 178.152344 81.25 177.132812 C 79.550781 176.792969 77.507812 176.792969 75.128906 176.792969 C 73.089844 177.132812 69.691406 177.8125 66.96875 178.492188 Z M 66.96875 178.492188 " fill-opacity="1" fill-rule="evenodd"/><path fill="#0b5d1e" d="M 87.710938 208.074219 C 82.609375 207.050781 77.851562 206.710938 72.410156 208.414062 C 62.890625 211.132812 55.070312 216.914062 51.667969 226.433594 C 48.269531 235.953125 49.289062 248.53125 55.410156 264.171875 C 59.488281 274.710938 63.910156 283.210938 69.691406 288.992188 C 75.808594 294.433594 83.96875 296.472656 93.148438 293.753906 C 95.191406 293.074219 96.210938 292.054688 97.230469 291.710938 C 98.25 291.03125 98.589844 291.03125 98.589844 291.03125 C 98.589844 291.03125 98.929688 291.03125 99.949219 291.710938 C 100.96875 292.394531 101.988281 293.074219 104.03125 293.753906 C 111.507812 295.792969 117.96875 295.453125 123.410156 292.054688 C 128.851562 288.992188 132.929688 283.554688 136.328125 277.09375 C 137.351562 275.394531 136.667969 273.351562 134.96875 272.332031 C 133.269531 271.3125 131.230469 271.992188 130.210938 273.691406 C 127.148438 279.8125 123.75 283.894531 120.011719 285.933594 C 116.269531 287.972656 112.191406 288.652344 106.410156 286.953125 C 106.070312 286.953125 105.390625 286.273438 104.371094 285.59375 C 103.351562 284.914062 101.648438 283.894531 99.269531 283.894531 C 96.890625 283.894531 95.191406 284.914062 94.167969 285.59375 C 93.148438 286.273438 92.128906 286.613281 91.789062 286.953125 C 83.96875 289.332031 79.550781 287.972656 75.128906 283.894531 C 70.710938 279.8125 66.628906 271.992188 62.550781 261.792969 C 56.769531 246.832031 56.429688 236.292969 58.808594 228.8125 C 61.53125 221.671875 66.96875 217.253906 74.789062 215.210938 C 79.210938 214.191406 82.609375 214.191406 86.691406 214.871094 C 88.730469 215.210938 90.429688 213.851562 90.769531 212.152344 C 90.769531 210.113281 89.410156 208.414062 87.710938 208.074219 Z M 87.710938 208.074219 " fill-opacity="1" fill-rule="evenodd"/><path fill="#0b5d1e" d="M 242.070312 261.453125 C 242.75 262.132812 243.769531 262.472656 244.449219 263.152344 C 244.449219 264.171875 244.449219 265.191406 244.789062 266.210938 L 239.351562 266.210938 Z M 235.949219 253.292969 C 236.289062 254.3125 236.628906 254.992188 236.96875 256.011719 L 229.832031 267.914062 C 228.46875 270.292969 230.171875 273.351562 232.890625 273.351562 L 246.832031 273.351562 C 247.511719 274.03125 247.851562 275.054688 248.53125 275.734375 C 238.332031 276.414062 227.109375 279.132812 217.589844 286.953125 C 216.910156 287.632812 216.910156 287.292969 216.570312 287.292969 C 216.570312 287.292969 216.230469 287.292969 216.230469 286.953125 L 212.828125 281.171875 L 209.429688 275.394531 C 209.429688 275.054688 209.429688 275.054688 209.429688 275.054688 C 209.429688 275.054688 209.429688 274.710938 210.449219 274.371094 C 220.988281 270.632812 230.171875 263.492188 235.949219 253.292969 Z M 267.910156 208.074219 C 268.929688 209.09375 270.628906 209.433594 272.332031 208.753906 C 278.449219 205.011719 286.269531 207.390625 290.011719 213.511719 C 290.691406 214.871094 291.371094 216.234375 291.371094 217.59375 C 291.710938 219.632812 293.410156 220.652344 295.449219 220.3125 C 300.550781 219.632812 305.992188 222.011719 308.371094 226.433594 C 311.089844 230.851562 310.75 236.632812 307.351562 240.710938 C 306.671875 241.394531 306.332031 242.753906 306.671875 243.433594 C 306.671875 244.113281 307.351562 244.792969 307.691406 245.472656 C 308.710938 246.492188 309.730469 247.511719 310.410156 248.871094 C 314.152344 254.992188 311.769531 262.8125 305.652344 266.550781 C 304.289062 267.234375 303.609375 268.933594 303.949219 270.632812 C 305.652344 276.414062 302.929688 282.191406 297.832031 285.253906 C 295.449219 286.613281 292.730469 287.292969 290.011719 286.953125 C 291.710938 283.554688 292.390625 279.472656 291.371094 275.734375 C 294.089844 270.972656 293.75 265.191406 291.03125 260.09375 C 288.648438 256.011719 283.890625 254.3125 279.128906 253.632812 C 277.089844 249.550781 273.351562 246.832031 269.609375 246.152344 C 265.53125 245.132812 261.449219 246.152344 258.050781 247.851562 C 256.351562 248.871094 255.671875 250.914062 256.691406 252.613281 C 257.710938 254.3125 259.75 254.992188 261.449219 253.972656 C 263.492188 252.953125 265.871094 252.613281 268.25 252.953125 C 270.289062 253.292969 271.992188 254.652344 273.351562 257.03125 C 274.03125 258.394531 275.390625 259.074219 276.75 259.074219 C 280.148438 258.734375 283.210938 260.433594 284.910156 263.492188 C 286.609375 266.550781 286.609375 270.292969 284.570312 273.011719 C 283.890625 274.03125 283.890625 275.054688 284.230469 276.414062 C 285.589844 279.8125 284.910156 283.894531 281.171875 286.613281 C 277.429688 289.332031 272.332031 287.972656 270.289062 284.234375 C 269.609375 282.871094 269.269531 281.171875 269.269531 279.472656 C 269.609375 277.09375 267.910156 275.394531 265.53125 275.394531 C 264.171875 275.394531 262.808594 275.394531 261.109375 275.394531 C 257.371094 274.710938 254.308594 272.671875 252.269531 269.273438 C 250.910156 266.894531 250.230469 264.511719 250.570312 261.792969 C 250.570312 260.433594 249.890625 259.074219 248.53125 258.394531 C 246.148438 257.371094 244.109375 255.332031 243.089844 253.292969 C 241.050781 249.894531 240.710938 246.152344 242.070312 242.753906 C 242.75 241.394531 244.109375 240.03125 244.449219 238.671875 C 245.46875 235.953125 244.789062 234.59375 242.75 233.574219 C 241.050781 232.894531 239.691406 231.871094 239.011719 230.511719 C 236.628906 225.414062 239.011719 220.992188 243.089844 219.632812 C 244.449219 219.292969 245.46875 217.933594 245.46875 216.574219 C 245.808594 212.152344 248.191406 208.414062 251.929688 206.371094 C 253.96875 205.011719 256.351562 204.671875 259.070312 204.671875 C 262.128906 203.992188 265.53125 205.351562 267.910156 208.074219 Z M 240.371094 212.832031 C 236.628906 214.191406 232.890625 217.933594 232.210938 221.332031 C 230.171875 228.8125 231.53125 233.914062 237.308594 237.3125 C 231.191406 247.851562 223.371094 262.8125 208.410156 267.914062 C 206.03125 268.933594 203.988281 270.632812 203.308594 272.671875 C 202.628906 274.710938 202.96875 277.09375 203.988281 279.132812 L 207.390625 284.914062 L 210.789062 290.691406 C 211.808594 292.734375 213.851562 294.09375 216.230469 294.433594 C 218.609375 294.773438 220.988281 294.09375 223.03125 292.394531 C 234.929688 282.191406 251.929688 282.53125 264.171875 282.53125 C 264.171875 284.234375 264.171875 286.273438 265.191406 287.632812 C 269.269531 294.433594 278.109375 297.152344 285.25 293.074219 C 285.929688 292.734375 286.269531 292.394531 286.949219 292.054688 C 292.050781 293.414062 297.492188 294.09375 302.25 291.371094 C 309.390625 287.292969 312.789062 278.792969 311.429688 270.972656 C 319.25 264.851562 322.308594 254.3125 317.210938 245.8125 C 316.53125 244.453125 315.511719 243.773438 314.492188 242.414062 C 317.890625 236.292969 318.570312 229.152344 314.832031 223.03125 C 311.429688 216.914062 304.628906 213.851562 297.832031 213.851562 C 297.492188 212.492188 297.148438 211.132812 296.46875 209.773438 C 291.371094 200.933594 280.832031 198.550781 271.648438 202.292969 C 268.589844 199.914062 265.53125 197.53125 260.429688 197.191406 C 255.332031 196.851562 252.609375 197.871094 248.53125 200.253906 C 244.109375 202.632812 241.730469 207.734375 240.371094 212.832031 Z M 240.371094 212.832031 " fill-opacity="1" fill-rule="nonzero"/><path fill="#0b5d1e" d="M 256.691406 214.871094 C 254.988281 215.890625 254.308594 217.933594 255.332031 219.632812 C 256.351562 221.332031 258.390625 222.011719 260.089844 220.992188 C 262.46875 219.632812 265.191406 220.3125 266.890625 223.03125 C 266.890625 223.371094 267.230469 223.371094 267.230469 223.710938 C 267.910156 225.414062 269.949219 226.433594 271.992188 225.753906 C 274.710938 224.734375 278.449219 225.753906 280.148438 228.8125 C 282.191406 232.210938 280.832031 235.953125 278.109375 237.652344 C 276.410156 238.671875 275.730469 240.710938 276.75 242.414062 C 277.769531 244.113281 279.808594 244.792969 281.511719 243.773438 C 287.96875 240.03125 290.011719 231.871094 286.269531 225.414062 C 283.550781 220.652344 278.109375 218.613281 272.671875 219.292969 C 270.96875 216.914062 268.589844 214.871094 265.871094 214.191406 C 262.808594 212.832031 259.75 213.171875 256.691406 214.871094 Z M 256.691406 214.871094 " fill-opacity="1" fill-rule="nonzero"/><path fill="#0b5d1e" d="M 300.210938 130.890625 C 304.289062 130.890625 308.371094 131.574219 312.449219 133.613281 C 302.929688 135.992188 295.789062 141.433594 291.371094 149.933594 C 289.332031 148.230469 286.949219 146.871094 284.570312 145.851562 C 284.910156 142.453125 284.570312 139.390625 284.570312 136.332031 C 290.011719 132.933594 295.109375 131.230469 300.210938 130.890625 Z M 258.050781 113.890625 C 262.128906 115.933594 268.929688 120.691406 271.648438 123.414062 C 276.070312 127.832031 278.789062 133.613281 278.449219 143.132812 C 273.351562 141.433594 268.25 140.414062 263.832031 140.074219 C 264.851562 131.574219 263.492188 120.691406 258.050781 113.890625 Z M 315.851562 115.253906 C 310.410156 117.292969 301.910156 120.691406 298.171875 125.453125 C 296.808594 125.453125 295.789062 125.453125 294.429688 125.792969 C 294.429688 121.710938 294.089844 118.3125 293.070312 114.914062 C 296.46875 113.550781 299.53125 112.871094 303.609375 112.871094 C 307.351562 112.871094 311.429688 113.890625 315.851562 115.253906 Z M 144.488281 106.414062 C 127.148438 127.152344 135.308594 163.871094 147.550781 183.59375 C 152.988281 192.773438 154.351562 197.871094 154.691406 206.710938 C 155.03125 225.414062 157.070312 250.234375 166.929688 265.191406 C 171.011719 271.3125 174.410156 277.09375 174.410156 280.152344 C 174.410156 283.210938 174.070312 284.574219 172.710938 285.59375 C 171.691406 286.613281 169.308594 287.632812 164.890625 287.632812 C 159.109375 287.632812 153.328125 282.871094 149.25 275.394531 C 145.167969 267.574219 143.128906 257.710938 145.167969 248.191406 C 147.550781 235.953125 147.890625 222.351562 140.75 213.511719 C 135.308594 206.710938 126.808594 202.632812 120.691406 193.792969 C 114.570312 184.953125 109.808594 171.691406 112.191406 145.851562 C 114.230469 126.472656 121.03125 115.253906 128.511719 109.8125 C 134.289062 105.730469 138.710938 105.730469 144.488281 106.414062 Z M 267.570312 98.253906 C 271.308594 100.292969 278.449219 105.050781 281.171875 107.773438 C 285.589844 112.191406 288.308594 117.972656 287.96875 127.492188 C 286.269531 128.171875 284.570312 128.851562 283.210938 129.871094 C 281.851562 125.453125 279.46875 122.050781 276.410156 118.992188 C 275.730469 118.3125 275.050781 117.632812 274.371094 116.953125 C 274.03125 111.171875 269.949219 102.671875 267.570312 98.253906 Z M 187.671875 99.273438 C 190.730469 106.414062 195.488281 110.152344 199.570312 113.550781 C 196.851562 126.8125 195.488281 145.511719 194.808594 162.511719 C 194.46875 173.050781 194.128906 182.574219 194.128906 189.710938 C 191.410156 186.3125 188.351562 182.914062 187.328125 180.191406 C 184.269531 169.3125 184.609375 159.113281 185.289062 149.253906 C 185.289062 147.210938 183.929688 145.511719 181.890625 145.511719 C 179.851562 145.511719 178.148438 146.871094 178.148438 148.914062 C 177.46875 158.09375 177.808594 167.613281 179.511719 178.152344 C 180.53125 185.292969 185.628906 191.074219 189.710938 196.171875 C 192.089844 199.234375 193.449219 201.613281 193.789062 203.992188 C 193.449219 222.691406 191.070312 249.210938 182.910156 261.792969 C 181.210938 264.511719 179.171875 267.234375 177.808594 269.953125 C 176.109375 267.234375 174.410156 264.511719 172.710938 261.792969 C 164.550781 249.550781 161.828125 224.734375 161.828125 206.371094 C 161.828125 202.292969 164.210938 198.210938 165.910156 195.492188 C 168.628906 191.074219 172.371094 185.972656 175.089844 180.53125 C 175.429688 179.511719 175.429688 178.492188 175.089844 177.472656 C 172.371094 171.691406 168.96875 164.890625 166.589844 158.09375 C 164.210938 151.292969 163.53125 144.832031 165.570312 140.414062 C 166.25 138.710938 165.570312 136.671875 163.871094 135.652344 C 163.191406 135.3125 162.171875 135.3125 161.148438 135.652344 C 160.128906 135.992188 159.449219 136.671875 159.109375 137.691406 C 156.050781 144.832031 157.410156 152.652344 160.128906 160.132812 C 162.511719 166.933594 165.570312 173.390625 168.289062 178.832031 C 165.910156 183.59375 162.851562 188.011719 160.46875 192.09375 C 159.109375 188.351562 156.730469 184.613281 154.351562 180.53125 C 142.789062 160.132812 138.371094 134.632812 148.910156 113.210938 C 152.308594 107.09375 156.390625 101.3125 161.828125 96.210938 C 166.929688 91.453125 171.011719 89.414062 176.449219 89.414062 C 181.210938 89.070312 184.949219 92.472656 187.671875 99.273438 Z M 301.910156 88.390625 C 299.53125 93.492188 296.128906 101.3125 296.46875 107.433594 C 294.429688 107.773438 292.390625 108.113281 290.351562 109.132812 C 289.332031 107.09375 287.628906 105.050781 286.269531 103.351562 C 289.332031 97.914062 295.789062 91.453125 301.910156 88.390625 Z M 306.671875 81.253906 C 295.109375 83.632812 286.269531 90.433594 281.171875 99.273438 C 275.730469 95.53125 269.269531 92.8125 262.128906 90.433594 C 259.070312 89.414062 256.691406 92.8125 258.390625 95.53125 C 262.808594 101.3125 266.210938 106.753906 267.230469 112.53125 C 262.808594 110.152344 257.710938 108.113281 252.609375 106.414062 C 249.550781 105.390625 246.832031 108.792969 248.871094 111.511719 C 255.671875 120.351562 260.089844 128.511719 256.691406 140.414062 C 254.992188 140.753906 252.269531 141.09375 249.890625 141.773438 C 246.488281 117.292969 237.648438 102.332031 227.449219 95.871094 C 222.011719 92.472656 215.890625 92.132812 210.789062 94.511719 C 206.371094 96.550781 203.308594 100.632812 201.269531 106.070312 C 198.210938 103.691406 195.828125 100.972656 193.789062 96.550781 C 190.390625 88.730469 185.289062 82.953125 177.128906 82.273438 C 168.96875 81.59375 162.851562 84.992188 157.75 89.414062 C 152.988281 93.832031 150.949219 97.570312 148.570312 100.972656 C 141.429688 97.914062 131.910156 98.59375 123.75 105.050781 C 114.570312 112.191406 107.089844 125.453125 104.710938 146.191406 C 102.667969 172.371094 107.769531 188.011719 114.910156 198.210938 C 122.390625 208.414062 131.230469 213.171875 135.308594 218.273438 C 140.070312 224.050781 140.410156 235.953125 138.371094 247.171875 C 135.988281 258.394531 138.371094 269.953125 143.128906 278.792969 C 147.890625 287.972656 155.710938 294.773438 164.890625 294.773438 C 170.671875 294.773438 174.75 293.414062 177.808594 290.691406 L 178.488281 290.691406 C 181.210938 293.414062 185.628906 294.773438 191.410156 294.773438 C 195.828125 294.773438 200.25 293.074219 203.648438 290.351562 C 205.351562 289.332031 205.691406 286.953125 204.328125 285.253906 C 203.308594 283.554688 200.929688 283.554688 199.230469 284.574219 C 196.511719 286.613281 193.789062 287.632812 191.070312 287.632812 C 186.648438 287.632812 184.269531 286.613281 183.25 285.59375 C 182.230469 284.574219 181.550781 283.210938 181.550781 280.152344 C 181.550781 277.09375 184.949219 271.3125 189.03125 265.191406 C 198.890625 250.234375 200.589844 225.414062 201.269531 206.710938 C 201.609375 205.351562 201.609375 204.332031 201.269531 202.972656 C 201.269531 202.632812 201.269531 202.292969 201.269531 201.953125 C 201.269531 197.191406 201.269531 180.871094 201.949219 162.171875 C 202.628906 143.472656 204.328125 122.730469 207.390625 110.492188 C 208.75 104.710938 211.46875 101.652344 214.191406 100.292969 C 216.910156 98.933594 220.308594 98.933594 224.050781 101.3125 C 231.871094 106.070312 240.710938 120.351562 243.429688 145.851562 C 246.148438 171.351562 241.390625 184.953125 234.929688 193.792969 C 228.808594 202.632812 220.308594 206.710938 214.871094 213.511719 C 207.730469 222.351562 208.070312 235.953125 210.449219 248.191406 C 210.789062 250.574219 211.128906 252.953125 211.128906 255.332031 C 211.128906 257.371094 212.828125 258.734375 214.53125 258.734375 C 216.570312 258.734375 217.929688 257.03125 217.929688 255.332031 C 217.929688 252.613281 217.589844 249.894531 216.910156 247.171875 C 214.53125 235.953125 215.210938 224.050781 219.96875 218.273438 C 224.050781 213.171875 232.890625 208.414062 240.371094 198.210938 C 247.511719 188.351562 252.269531 173.390625 250.230469 148.574219 C 257.371094 146.53125 266.550781 146.53125 275.050781 149.59375 C 282.871094 152.3125 288.648438 156.390625 292.730469 161.832031 L 276.75 168.972656 C 275.390625 169.652344 274.710938 171.351562 275.390625 172.710938 C 276.070312 174.074219 277.769531 174.753906 279.128906 174.074219 L 296.128906 166.933594 C 300.210938 175.09375 301.570312 185.972656 299.53125 200.253906 C 299.191406 202.292969 300.550781 203.992188 302.589844 204.332031 C 304.628906 204.671875 306.332031 203.3125 306.671875 201.273438 C 308.710938 186.3125 307.691406 173.730469 302.589844 163.871094 C 300.890625 160.472656 298.851562 157.414062 296.128906 154.691406 C 300.890625 143.132812 309.390625 139.730469 320.609375 137.351562 C 323.671875 136.671875 324.011719 132.253906 320.949219 131.230469 C 315.851562 129.53125 310.75 127.832031 305.648438 126.8125 C 310.410156 122.730469 316.191406 120.691406 323.332031 118.992188 C 326.390625 118.3125 326.730469 113.890625 323.671875 112.871094 C 317.210938 110.492188 311.089844 108.453125 304.96875 107.773438 C 303.949219 107.773438 303.269531 107.433594 302.25 107.433594 C 302.25 99.613281 304.96875 92.8125 309.730469 86.011719 C 312.109375 82.953125 309.390625 80.570312 306.671875 81.253906 Z M 306.671875 81.253906 " fill-opacity="1" fill-rule="nonzero"/><path fill="#0b5d1e" d="M 123.410156 157.414062 C 121.371094 157.753906 120.011719 159.453125 120.351562 161.152344 C 122.390625 184.273438 132.929688 193.792969 142.109375 203.652344 C 143.46875 205.011719 145.511719 205.351562 147.210938 203.992188 C 148.570312 202.632812 148.910156 200.59375 147.550781 198.890625 C 138.03125 188.351562 129.191406 181.550781 127.488281 160.472656 C 127.148438 158.773438 125.449219 157.414062 123.410156 157.414062 Z M 123.410156 157.414062 " fill-opacity="1" fill-rule="nonzero"/><path fill="#0b5d1e" d="M 232.890625 157.414062 C 230.851562 157.414062 229.148438 158.773438 229.148438 160.8125 C 227.449219 181.890625 218.609375 188.691406 209.089844 199.234375 C 207.730469 200.59375 208.070312 202.972656 209.429688 204.332031 C 210.789062 205.691406 213.171875 205.351562 214.53125 203.992188 C 223.710938 194.132812 234.25 184.613281 236.289062 161.492188 C 236.289062 159.453125 234.589844 157.414062 232.890625 157.414062 Z M 232.890625 157.414062 " fill-opacity="1" fill-rule="nonzero"/><path fill="#0b5d1e" d="M 259.75 158.773438 C 259.070312 158.773438 258.390625 158.773438 257.710938 159.453125 C 256.351562 160.472656 256.011719 162.171875 257.03125 163.53125 L 264.851562 174.074219 L 256.691406 177.472656 C 255.332031 178.152344 254.648438 179.851562 255.332031 181.210938 C 256.011719 182.574219 257.710938 183.253906 259.070312 182.574219 L 268.25 178.492188 L 279.46875 193.792969 C 280.492188 195.152344 282.191406 195.492188 283.550781 194.472656 C 284.910156 193.453125 285.25 191.753906 284.230469 190.390625 L 261.449219 159.792969 C 261.449219 159.453125 260.429688 158.773438 259.75 158.773438 Z M 259.75 158.773438 " fill-opacity="1" fill-rule="nonzero"/><g clip-path="url(#a47989148b)"><g clip-path="url(#d92e57e5d3)"><g clip-path="url(#4137f6aa8a)"><path fill="#d17a22" d="M 323.585938 56.351562 C 322.671875 56.148438 321.75 56.027344 320.820312 55.980469 C 319.886719 55.9375 318.957031 55.96875 318.03125 56.082031 C 317.101562 56.195312 316.191406 56.382812 315.296875 56.652344 C 314.402344 56.917969 313.535156 57.257812 312.699219 57.671875 C 311.863281 58.085938 311.066406 58.566406 310.308594 59.117188 C 309.554688 59.664062 308.851562 60.273438 308.199219 60.941406 C 307.546875 61.609375 306.957031 62.328125 306.425781 63.09375 C 305.894531 63.863281 305.433594 64.671875 305.039062 65.519531 C 302.585938 70.925781 300.429688 76.449219 298.574219 82.089844 C 300.523438 76.480469 302.167969 70.78125 303.503906 64.996094 C 303.707031 64.085938 303.828125 63.164062 303.875 62.230469 C 303.917969 61.296875 303.886719 60.367188 303.773438 59.441406 C 303.660156 58.515625 303.472656 57.605469 303.203125 56.710938 C 302.9375 55.816406 302.597656 54.949219 302.183594 54.113281 C 301.769531 53.273438 301.289062 52.480469 300.738281 51.722656 C 300.191406 50.96875 299.582031 50.265625 298.914062 49.613281 C 298.246094 48.960938 297.527344 48.367188 296.757812 47.839844 C 295.992188 47.308594 295.183594 46.84375 294.335938 46.453125 C 288.929688 44 283.40625 41.84375 277.765625 39.988281 C 283.375 41.9375 289.070312 43.582031 294.855469 44.917969 C 295.769531 45.117188 296.691406 45.242188 297.625 45.289062 C 298.554688 45.332031 299.484375 45.300781 300.414062 45.1875 C 301.339844 45.074219 302.25 44.882812 303.144531 44.617188 C 304.039062 44.351562 304.90625 44.011719 305.742188 43.597656 C 306.578125 43.183594 307.375 42.703125 308.132812 42.152344 C 308.886719 41.605469 309.589844 40.996094 310.242188 40.328125 C 310.894531 39.660156 311.488281 38.941406 312.015625 38.171875 C 312.546875 37.40625 313.007812 36.597656 313.402344 35.75 C 315.855469 30.34375 318.011719 24.820312 319.867188 19.179688 C 317.917969 24.789062 316.273438 30.484375 314.9375 36.269531 C 314.738281 37.183594 314.613281 38.105469 314.566406 39.035156 C 314.523438 39.96875 314.554688 40.898438 314.667969 41.824219 C 314.78125 42.753906 314.96875 43.664062 315.238281 44.558594 C 315.503906 45.453125 315.84375 46.320312 316.257812 47.15625 C 316.671875 47.992188 317.152344 48.789062 317.703125 49.546875 C 318.25 50.300781 318.859375 51.003906 319.527344 51.65625 C 320.195312 52.308594 320.914062 52.898438 321.683594 53.429688 C 322.449219 53.960938 323.257812 54.421875 324.105469 54.816406 C 329.511719 57.269531 335.035156 59.425781 340.675781 61.28125 C 335.066406 59.332031 329.371094 57.6875 323.585938 56.351562 Z M 323.585938 56.351562 " fill-opacity="1" fill-rule="nonzero"/></g></g></g><g clip-path="url(#6852257b9e)"><g clip-path="url(#011ae6cb18)"><g clip-path="url(#513b0f9f3f)"><path fill="#d17a22" d="M 340 96.632812 C 339.445312 96.511719 338.882812 96.4375 338.3125 96.410156 C 337.742188 96.378906 337.175781 96.402344 336.609375 96.46875 C 336.042969 96.539062 335.488281 96.65625 334.941406 96.816406 C 334.394531 96.980469 333.867188 97.1875 333.355469 97.441406 C 332.84375 97.691406 332.359375 97.988281 331.898438 98.320312 C 331.433594 98.65625 331.003906 99.027344 330.605469 99.4375 C 330.210938 99.84375 329.847656 100.28125 329.523438 100.75 C 329.199219 101.222656 328.917969 101.714844 328.679688 102.230469 C 327.179688 105.53125 325.863281 108.90625 324.730469 112.351562 C 325.921875 108.925781 326.925781 105.445312 327.742188 101.914062 C 327.863281 101.355469 327.941406 100.792969 327.96875 100.226562 C 327.996094 99.65625 327.972656 99.085938 327.90625 98.523438 C 327.835938 97.957031 327.722656 97.398438 327.558594 96.851562 C 327.394531 96.308594 327.1875 95.777344 326.933594 95.265625 C 326.683594 94.757812 326.386719 94.269531 326.054688 93.808594 C 325.71875 93.347656 325.347656 92.917969 324.9375 92.519531 C 324.53125 92.121094 324.09375 91.761719 323.625 91.4375 C 323.152344 91.113281 322.660156 90.832031 322.144531 90.589844 C 318.84375 89.09375 315.46875 87.777344 312.027344 86.640625 C 315.449219 87.832031 318.929688 88.835938 322.460938 89.652344 C 323.019531 89.773438 323.582031 89.851562 324.152344 89.878906 C 324.71875 89.90625 325.289062 89.882812 325.855469 89.816406 C 326.417969 89.746094 326.976562 89.632812 327.523438 89.46875 C 328.066406 89.304688 328.597656 89.097656 329.109375 88.847656 C 329.617188 88.59375 330.105469 88.300781 330.566406 87.964844 C 331.027344 87.628906 331.457031 87.257812 331.855469 86.851562 C 332.253906 86.441406 332.613281 86.003906 332.9375 85.535156 C 333.261719 85.066406 333.546875 84.574219 333.785156 84.054688 C 335.28125 80.753906 336.597656 77.382812 337.730469 73.9375 C 336.542969 77.363281 335.539062 80.839844 334.722656 84.375 C 334.597656 84.929688 334.523438 85.492188 334.496094 86.0625 C 334.46875 86.632812 334.488281 87.199219 334.558594 87.765625 C 334.625 88.332031 334.742188 88.886719 334.90625 89.433594 C 335.066406 89.980469 335.277344 90.507812 335.527344 91.019531 C 335.78125 91.53125 336.074219 92.015625 336.410156 92.476562 C 336.746094 92.941406 337.117188 93.371094 337.523438 93.769531 C 337.933594 94.164062 338.371094 94.527344 338.839844 94.851562 C 339.308594 95.175781 339.800781 95.457031 340.320312 95.695312 C 343.621094 97.195312 346.992188 98.507812 350.4375 99.644531 C 347.011719 98.453125 343.535156 97.449219 340 96.632812 Z M 340 96.632812 " fill-opacity="1" fill-rule="nonzero"/></g></g></g></svg>